# xmcd
#
# Track frame offsets:
#	150
#	13550
#	28692
#	41699
#	54289
#	65554
#	76461
#	89196
#	103256
#	116699
#	129364
#
# Disc length: 1877 seconds
#
# Revision: 0
# Processed by: cddbd v1.5.1PL0 Copyright (c) Steve Scherf et al.
# Submitted via: dBpowerAMP V4.0
#
DISCID=9307530b
DTITLE=Merle Haggard - The Best Of Merle Haggard
DYEAR=1968
DGENRE=Country
TTITLE0=The Fugitive
TTITLE1=I Threw Away The Rose
TTITLE2=Swingin' Doors
TTITLE3=House Of Memories
TTITLE4=(My Friends Are Gonna Be) Strangers
TTITLE5=Shade Tree Fix It Man
TTITLE6=Sing Me Back Home
TTITLE7=Branded Man
TTITLE8=High On A Hilltop
TTITLE9=The Bottle Let Me Down
TTITLE10=Sam Hill
EXTD=+Sound Man+
EXTT0=
EXTT1=
EXTT2=
EXTT3=
EXTT4=
EXTT5=
EXTT6=
EXTT7=
EXTT8=
EXTT9=
EXTT10=
PLAYORDER=
